<svg viewBox="0 0 24 24" fill="none" xmlns="http://www.w3.org/2000/svg">
<path d="M12.15 16.3422C12.7192 16.3422 13.2301 16.2003 13.6827 15.9163C14.1352 15.6324 14.3615 15.177 14.3615 14.55C14.3615 14.0282 14.167 13.6125 13.778 13.303C13.3888 12.9933 12.6628 12.6436 11.6 12.2537C10.5718 11.8846 9.83016 11.4712 9.375 11.0135C8.91983 10.5558 8.69225 9.95133 8.69225 9.2C8.69225 8.55517 8.925 7.96475 9.3905 7.42875C9.85583 6.89292 10.5064 6.55125 11.3422 6.40375V5.875C11.3422 5.693 11.4106 5.53375 11.5472 5.39725C11.6837 5.26058 11.843 5.19225 12.025 5.19225C12.207 5.19225 12.3662 5.26058 12.5027 5.39725C12.6394 5.53375 12.7077 5.693 12.7077 5.875V6.40375C13.1782 6.43708 13.6161 6.59 14.0212 6.8625C14.4262 7.135 14.757 7.47317 15.0135 7.877C15.1045 8.01533 15.1128 8.16308 15.0385 8.32025C14.9642 8.47725 14.8392 8.58783 14.6635 8.652C14.4982 8.716 14.3312 8.72433 14.1625 8.677C13.994 8.6295 13.8558 8.53333 13.748 8.3885C13.5558 8.15633 13.3202 7.96817 13.0412 7.824C12.7624 7.67983 12.432 7.60775 12.05 7.60775C11.4282 7.60775 10.9407 7.75517 10.5875 8.05C10.2343 8.34483 10.0577 8.72817 10.0577 9.2C10.0577 9.67183 10.2302 10.0392 10.575 10.302C10.9198 10.5648 11.6179 10.8758 12.6692 11.2348C13.8692 11.6681 14.6757 12.1539 15.0885 12.6923C15.5013 13.2308 15.7077 13.85 15.7077 14.55C15.7077 15.027 15.6196 15.4456 15.4432 15.8057C15.2669 16.1661 15.0365 16.469 14.752 16.7145C14.4673 16.96 14.1432 17.1539 13.7797 17.2962C13.4162 17.4384 13.0422 17.5384 12.6577 17.5963V18.125C12.6577 18.307 12.5894 18.4663 12.4527 18.6028C12.3162 18.7394 12.157 18.8078 11.975 18.8078C11.793 18.8078 11.6337 18.7394 11.4972 18.6028C11.3606 18.4663 11.2922 18.307 11.2922 18.125V17.5462C10.6782 17.4129 10.1462 17.1741 9.69625 16.8298C9.24625 16.4856 8.8815 16.0366 8.602 15.4827C8.52116 15.3071 8.5205 15.1333 8.6 14.9615C8.6795 14.7897 8.80708 14.6718 8.98275 14.6077C9.14808 14.5436 9.31666 14.5445 9.4885 14.6105C9.66033 14.6767 9.79175 14.7873 9.88275 14.9423C10.1417 15.4012 10.4664 15.7493 10.8567 15.9865C11.2471 16.2237 11.6782 16.3422 12.15 16.3422ZM12 22.5C10.05 22.5 8.28041 22.0173 6.69125 21.0518C5.10225 20.0864 3.85583 18.7928 2.952 17.171V19.4038C2.952 19.6166 2.88016 19.7948 2.7365 19.9385C2.593 20.082 2.41483 20.1538 2.202 20.1538C1.98916 20.1538 1.81091 20.082 1.66725 19.9385C1.52375 19.7948 1.452 19.6166 1.452 19.4038V15.5577C1.452 15.2999 1.53816 15.0848 1.7105 14.9125C1.883 14.74 2.09808 14.6538 2.35575 14.6538H6.202C6.41483 14.6538 6.593 14.7256 6.7365 14.8693C6.88016 15.0128 6.952 15.1909 6.952 15.4038C6.952 15.6166 6.88016 15.7948 6.7365 15.9385C6.593 16.082 6.41483 16.1538 6.202 16.1538H4.1115C4.8345 17.6103 5.90308 18.7821 7.31725 19.6693C8.73141 20.5564 10.2923 21 12 21C14.3243 21 16.3307 20.2327 18.0192 18.698C19.7077 17.1635 20.6815 15.2482 20.9405 12.952C20.9673 12.743 21.0551 12.5738 21.2037 12.4443C21.3526 12.3147 21.5314 12.25 21.7402 12.25C21.9531 12.25 22.1322 12.3215 22.2777 12.4645C22.4232 12.6073 22.4826 12.7782 22.4557 12.977C22.3326 14.3167 21.9755 15.5637 21.3845 16.7182C20.7935 17.8727 20.0304 18.8785 19.0952 19.7355C18.1599 20.5925 17.0868 21.2675 15.876 21.7605C14.665 22.2535 13.373 22.5 12 22.5ZM12 3C9.71416 3 7.719 3.75608 6.0145 5.26825C4.31 6.78042 3.325 8.70383 3.0595 11.0385C3.03266 11.2475 2.94491 11.4183 2.79625 11.551C2.64741 11.6837 2.46858 11.75 2.25975 11.75C2.04041 11.75 1.85958 11.6785 1.71725 11.5355C1.57508 11.3927 1.51741 11.2187 1.54425 11.0135C1.68008 9.64817 2.04833 8.38658 2.649 7.22875C3.24966 6.07108 4.01766 5.06858 4.953 4.22125C5.88816 3.37375 6.958 2.70833 8.1625 2.225C9.367 1.74167 10.6462 1.5 12 1.5C13.9308 1.5 15.7004 1.98433 17.3087 2.953C18.9171 3.9215 20.1635 5.22633 21.048 6.8675V4.59625C21.048 4.38342 21.1198 4.20517 21.2635 4.0615C21.407 3.918 21.5852 3.84625 21.798 3.84625C22.0108 3.84625 22.1891 3.918 22.3327 4.0615C22.4762 4.20517 22.548 4.38342 22.548 4.59625V8.44225C22.548 8.70008 22.4618 8.91517 22.2895 9.0875C22.117 9.26 21.9019 9.34625 21.6442 9.34625H17.798C17.5852 9.34625 17.407 9.27442 17.2635 9.13075C17.1198 8.98725 17.048 8.80908 17.048 8.59625C17.048 8.38342 17.1198 8.20517 17.2635 8.0615C17.407 7.918 17.5852 7.84625 17.798 7.84625H19.8885C19.1847 6.41542 18.1241 5.25 16.7067 4.35C15.2894 3.45 13.7205 3 12 3Z" fill="currentColor"/>
</svg>
