<svg viewBox="0 0 27 26" fill="none" xmlns="http://www.w3.org/2000/svg">
<path d="M26.8 7.31441V0C22.1188 0 17.5546 1.57991 14.2777 4.33013L13.4 5.03232L12.5223 4.33013C9.1869 1.57991 4.68122 0 0 0V7.31441C0 9.30393 0.702191 11.1764 1.8725 12.7563C0.702191 14.3362 0 16.2087 0 18.1983V25.5127C4.68122 25.5127 9.24541 23.9328 12.5223 21.1825L13.4 20.4804C11.1179 19.1345 9.71354 16.7354 9.71354 14.0437V11.469C9.71354 8.83581 11.1179 6.37817 13.4 5.03232C15.6821 6.37817 17.0865 8.83581 17.0865 11.469V14.0437C17.0865 16.6769 15.6821 19.1345 13.4 20.4804L14.2777 21.1825C17.6131 23.9328 22.1188 25.5127 26.8 25.5127V18.1983C26.8 16.2087 26.0978 14.3362 24.9275 12.7563C26.0978 11.1764 26.8 9.30393 26.8 7.31441Z" fill="currentColor"/>
</svg>
